<svg xmlns="http://www.w3.org/2000/svg" viewBox="0 0 250.66 84.18"><defs><style>.cls-1{fill:#fff;}.cls-2{fill:#fcfcfc;}</style></defs><title>資產 3</title><g id="圖層_2" data-name="圖層 2"><g id="圖層_1-2" data-name="圖層 1"><path class="cls-1" d="M150.07,43.46V36.77a5.83,5.83,0,0,0-4.27.23c-1.07.55-2.52.39-3.8.45-7.53.36-15,.79-22.58.88-1,0-1.63,2.15-2.83.39-.18-.25-1.27,1.06-2.09-.14s-1.67,1.7-2.72.2c-3.39,1.41-7,.28-10.43.79l-1.22,1.22v4.82c-2.4,4-4.8,7.35-10,6.77V49.9c1.42-4.14,3.09-7.41,3.58-10.85s-.24-6.92-.45-10.61l2.59,3.32v2.17l2.89,2.53c1.3-.08,2.9.45,4.18-1.68.64-3.37-1.68-7-1-10.94s-.72-7.7-1.12-12L97.67,8.68a5.32,5.32,0,0,1,6.54-2,17,17,0,0,0,4.87.79l2.25-1.59L110.1,4a2.53,2.53,0,0,1,3.1-1.45C117.09,3.67,121,4.89,124,7.93a4.27,4.27,0,0,0,1.17.63c2.43-2.41,2.27-5,.48-7.93h3l4.22,4.23-3.73,6.05,3,5.92c-1.48,3.5-3.89,6.59-4.9,10.63,1.4,1.34,3.07,2.95,4.92,4.71v2.25l8.44-1.29L141.73,31l-1.19-2.49h-7.09L132,26.92l2.82-1.45h5.64c2.16-2.78,2.13-3.46-.22-6-2.42-.13-5.17,3.12-7.38-1l1.48-2c2,.34,4.25-.68,6.28.91,2.57-2,.83-4.93,1.48-7.46a6.86,6.86,0,0,0-6.47.81L133.14,8c2.76-2.34,6.27-1.21,9.3-1.51,1.74-2.18,3.35-4.17,5.17-6.44,2.26,2,4.78,3.3,6.21,5.84a35.46,35.46,0,0,0-5,16.34c-.21,3.33-1.33,6.6-.64,10.14h5.12l2.44-2.44c2.33,2.4,4.84,5,7.36,7.57l.55-.63,1.29,4c-1.57,1.67-3.6,1.65-5.7,1.7s-4.19-.6-6.14.89C152.49,43.86,151.22,43.46,150.07,43.46ZM115.72,9.12l-7.63,2.24v4.78l1.71,1.56c2.23-1.22,4.37-3.16,7.5-1.68-2.1,4.1-6,4.07-9.33,4.74v5.17l2.48,2.54c1.65-1.89,3.6-.68,5.58-.34l-3.44,2.08-1.42-.66-3.53,2.6,1.79,4.59,7.62-1.52,3.9-7.61v-3.4l-2.66-2.51c1.47-.77,2.6-.06,3.63,1.19a4.8,4.8,0,0,0,1.35.78l1.88-2L123.68,19a29.19,29.19,0,0,0,2.79-1.58c.33-.22.41-.8.78-1.61l-2.9-.38-2.64,3.92h-2.62a11,11,0,0,1,1.09-2.52A30,30,0,0,1,123,14V11.65l-5.78-5.77ZM126,34c-.23-1.64.64-3.63-1.55-4.31l-3.83,2.7,1.43,2.83Z"/><path class="cls-1" d="M218.13,74.14l1.37,1.36c4.24-.51,9.1,1.47,12.8-2.9h4.85A18.11,18.11,0,0,1,246,79.3a2.5,2.5,0,0,1-1.36,3c-1.69.75-3.44,2-5.38.91-2.13-1.24-4.74-.3-6.78-1.72-5.1.78-10-1.39-15.07-1-1,.07-2.73-1-2.92-.75-1.21,1.76-1.89-.93-3.51.34-.08.09-.69.87-1.16,1.46-3.15,0-6-.14-8.81,0s-5.59-1-8.08,1.24l-2.68-2.39-.35,1.71-3.63,1.19c-.16-.81-.36-1.81-.54-2.75-2.37-.27-2.39,1.8-3.27,2.82L177,76.65l4.12-.19,27.62-1.31c1-1.35-.49-2.45-.71-3.76a30.31,30.31,0,0,1,0-4.7H193.58l-2.78-3.2c.73-1.47,13.95-1.32,17.16,0a13,13,0,0,0,.95-3.09c.13-2.83.05-5.66.05-8.77l3.72-.34.44-.51-2.22-.76.58-.59h-2.06c-.53.57-1.1,1.17-1.81,1.91h-4.45v4.87l-5.28,2.57-1.79-1.7c-.7-3.58.64-6.82,1.62-10.36-1.41-2.15-3-4.57-.48-7.5l-3.94-3.14c4.7-1.83,8.45.89,12.45.44s8.31-.1,13.15-.1c.65-.75,1.64-1.85,2.56-3,.77-1,1.46-2,2.21-3,3.86,1,5.76,4.4,8.91,7l-3.45,2.76c-.19,1-.47,2.51-.76,4,.26,2.59.52,5.25.84,8.5l-3.11-.94-1,2.35.69,2.43c-.75.24-1.78.53-2.77.93s-1.95.92-2.89,1.37v2.28c4.49,1.77,6.75-1.93,10-4.05l6.74,5.39v4c-2.43-.23-5,.86-7-.54-1.35.21-2.69.88-3.38.46-2.88-1.75-5.49-.84-8.34.38Zm-.65-22.85c.73.79.93,1.16,1.07,1.14A9.13,9.13,0,0,0,220,52c-.61-.17-1.21-.34,4.58-.13-3.66-.22-3.66-.22-5.63,3.23C221,53.87,222.53,53,217.48,51.29Zm2.3-5.13V38.62c-3.79-.71-7.64.87-10.66-1l-6.58,2.07c.2,2.17.4,4.31.6,6.44l1.36,1.37c4-.53,8.38,1,12.64-1A4.22,4.22,0,0,0,222,47c-.14-.16-.22-.34-.35-.38C221.18,46.5,220.73,46.41,219.78,46.16ZM183,78.8v.33h1V78.8Z"/><path class="cls-1" d="M54,30.39c-4.45.37-4.07,5.74-7.18,6.24-2.24,3.14-4.22,6-6.28,8.72-.16.22-.86,0-1.54,0,2.6-4.46,4.68-8.87,7-13.19.27-.53,0-1.32,0-2.22l2.63-2.21c1.94-7,3.66-13.09,5.48-19.62L51,4.94c.45-.45.76-1,1.17-1.12,2.76-.6,5.55-1.1,8.08-1.58L64.09,6.1a7.3,7.3,0,0,1-1,2.65,17.38,17.38,0,0,0-4.19,7.79c-.46,1.75-1.67,3.29-2.45,5a13,13,0,0,0-.62,2.28c1.37.59,2.77,1.8,3.83,1.55,3.29-.8,7-.36,9.8-2.84,1.3-1.14,2.75-2.11,4.14-3.17,3.56,1.34,5,4.67,7.77,7-.56,1.05-.84,2.43-1.44,2.58-3.66.95-6.77,3.78-11,3.51.42-1.52.8-2.68,1.05-3.86a9.82,9.82,0,0,0,0-2H58.8c.32,1.16.3,2.4.92,3.07,2.38,2.56,4.62,5,2.24,8.76.47,3.18-.88,6.47.92,9.62.75,1.3.19,3.05.62,4.7,1.1,4.3,4.1,7.34,6.23,10.92a21.75,21.75,0,0,0,10,9.21c.85.37,1.43,1.37,2.1,2L71.65,80.44c-1.82-2.39-4-4.71-5.53-7.41-4.06-7.24-7.74-14.86-6-23.38.86-4.11.38-8,1-12.64l-3,1.54c-.45,8.15-2.84,15.83-5.34,23.35-1.28,3.84-3.95,7.41-6.5,10.78-.56.74-.86,1.69-1.47,2.37-.3.34-1,.31-2,.56,1.39-5,4.54-8.82,4.28-13,1.15-2.42,2.68-4.2,2.76-6C50,52,52.25,47.66,52,43c1.76-2.45.24-5.62,1.89-8.23C54.5,33.7,54,31.91,54,30.39Z"/><path class="cls-1" d="M225.45,9.3l-3.89-2.94,1.86-1.86a15.85,15.85,0,0,1,9.21,6.3c1,1.39,2.32,3.24.69,5.71L227.8,16c-.24.58-.71,1.72-1.41,3.39l-3.77.16-5,4.18c2.52,2,4.33-1,6.57-.31,2.08.67,4.59-.73,6.26.82l6.24-1.05,2.24-1.93c4,3.86,9.86,5.18,11.75,11l-1.22,1.22c-2.18-.07-4.38-.12-6.38,1.3a7.35,7.35,0,0,1-2.7.68c-1,.21-2.05.38-3.33.62.38-2.54.79-5.31,1.19-8l-3.17-1.61c-1.9,1-3.79,1.92-5.63.05a19,19,0,0,1-3.63.92c-8.51.4-17.07.33-25.53,1.2-3.66.38-7.33.72-10.82.85L188,30.9v8l-6.16,4.69L178,42.18c0-.6-.26-1.4,0-1.84,2.1-3.17,1.26-7.44,3.94-10.36-.59-3,1.4-5.53,1.09-8.59,2.4.15,3.06,2.2,4,2.75l6.6,1.06,1.27-1.12c.62-4.19-3-8.16-1.55-13C198.42,14.38,202.56,18,204,24l3.21,1.59c-.43-2.23-.77-4-1.16-6.09l4.72,1,.18-.74-1.6-.43c-2-3.95-1.23-8.22-1.43-12.72l-5.1-2.8L208.42.55l1,.85,1-.91c1,1.54,2.75.57,4,1.07A19.52,19.52,0,0,1,218,3.8a7.63,7.63,0,0,1,0,2.16c-1.43,4.07-1.36,4.05-1,7.77.2,2.12,0,4.28,0,6.92l3.61-1.31ZM209.33,23.69c-.17,2.71-.17,2.71.88,2.46Zm-12.71-5.23h-.33v1h.33Zm-14.33,19h.33v-1h-.33Z"/><path class="cls-1" d="M38.07,80.15l-4,2.4C32.33,81.7,30.48,81.16,30,79V46.57c0-1.5.59-3.53-.15-4.37-1-1.12.19-2-.48-3.06s-.37-2.82-.5-4.26l-1.6-1.67L23,34.79A61.37,61.37,0,0,0,23,41.85c.42,3.63-.86,7-1.14,10.57a42.11,42.11,0,0,1-2,10.14,24.24,24.24,0,0,1-5.33,8.76C10.93,75.12,7.32,79,3,81.93a26.68,26.68,0,0,1-2.9,1.5c0-.67-.15-1.45,0-1.52,5.06-2.26,7.09-7.16,9.83-11.38,1.68-2.59,4-4.88,4.57-8.09C15,59.81,16,57.33,16,54.56A41.23,41.23,0,0,1,17,48c.34-2-.95-4.32,1-6.08-.38-2.36.89-4.94-1-7.15a11.46,11.46,0,0,0,.66-8.89,15.85,15.85,0,0,1-.6-4.7c0-3.61-.26-7-3.18-9.38.7-2,1.92-2.55,4.28-2.21l3.66,4.33L34.08,7.56l-.62-6.07L34.54.35C38.86,1.63,41,5.49,44.09,8c-.91,3.12-4.09,2.64-5.6,4.42l-.71-.64L24.85,15l-3.23,4.71c1.95,3,1.2,6.16,1.36,9.67.8.33,2.06,1.33,2.71,1,3.48-1.61,7.1-.54,10.86-1L40,25.57h3.55a2.56,2.56,0,0,1,.36.88c0,3.06,0,3.06-1.2,4.67l-7.52,1.21c.27,3.61.6,6.77.71,10q.18,5.24,0,10.49c-.12,3.2.67,6.52-.85,9.81.81,1.65,1.81,3.54-.16,5.46,1.69,3.65,1.33,7.36,0,11.25h3Z"/><path class="cls-1" d="M147.76,58.17c1.93-1.25,3-4.32,6.2-4.85l6.95,5.48V61a2,2,0,0,1-.41.39,1.05,1.05,0,0,1-.47.06h-7.5c-2.33,0-4.67,0-7,0s-4.54,1.46-7.09,1.09a53.83,53.83,0,0,0-7.48-.08,73.75,73.75,0,0,0,.06,8.28c.34,3-1.06,5.44-2.53,7.44-1.76,2.41-3.74,5-7.32,6-.56-.61-1.8-1.39-2.13-2.46-.78-2.54-3.09-3-4.87-4.23-1.34-.89-2.84-1.54-4.48-2.41,2.59-1.67,4.62,1.11,6.29.24,1.91-1,3.77-.56,5.86-1,.48-3.39,1-6.85,1.45-10.41-4.73-1.16-8.93,0-13.13.9-.44.1-.83.68-1.21.65-5.24-.47-10.37.8-15.51,1.15L91.58,62.7c5.32-.78,10.29-1.8,15.3-2.15,5.27-.37,10.58-.09,16-.09V49.9l5.37.73c.69-.69,1.34-1.08,1.58-1.65a5.58,5.58,0,0,0,0-2c-.07-.08-.16-.29-.28-.31a7.9,7.9,0,0,0-1.92-.18c-4.25.5-8.49,1.05-13.62,1.7-.27-.09-1.5-1.86-2.7.31L107,47V45c.23-.17.48-.51.73-.51,8.67-.14,17.26-2,25.78-.78l3-4.44c3.27,1,3.55,4.45,6.33,6.53-2.21,1.13-3.82,2-5.44,2.77-4.94,2.5-4.94,2.49-7.48,8l2.49,4.21c2.38-1.73,5-1.1,7.52-1.33S144.9,58.64,147.76,58.17Z"/><path class="cls-2" d="M40,78.46c-.09,1.5-1.25.85-2,1C38,78,39.2,78.61,40,78.46Z"/><path class="cls-1" d="M41,77.46l-1,1Z"/><path class="cls-2" d="M40.85,77.37l.7-.81.31.31-.81.7Z"/></g></g></svg>