<svg xmlns="http://www.w3.org/2000/svg" viewBox="0 0 424.76 423.51"><defs><style>.cls-1{fill:#fff;}</style></defs><title>HSIN_logo</title><g id="圖層_2" data-name="圖層 2"><g id="圖層_1-2" data-name="圖層 1"><path class="cls-1" d="M156.5,285c-3.19-2.44-6.91-4.8-8-9.4-.37-1.55-.83-3.37-.36-4.76.57-1.66.72-3.36,1.18-5,1.67-6,4.09-11.53,8.68-15.91.08-.08,0-.32,0-.49-7.42-5.07-8.39-8.64-5.94-17.29-3-2.42-4.85-5.5-3.82-10.32l4.27-3.24c1.21.39,2.23.76,3.27,1.05.89.25,1.8.41,3,.68,3-3.37,7.2-4.83,12.05-4.69,3,.09,6.14.56,9-.16a32.36,32.36,0,0,1,6.91-.84l2.47,3.92c-2.47,3.16-.35,6.37-.17,9.61.19,3.44,0,6.9,0,11.3l2.92-3.95v-3.34c-.44-1.09-2.47-1.57-1.89-3.49,4.35-7.39,9.55-14.08,17.63-18.68-3.81-3.23-5.15-7.2-5.64-11.5a18,18,0,0,1,3.06-11.77c-1.47-2.6-3.13-5.1-1.11-8.26,1.9-3,4.69-2.9,7.57-2.79l1.86,1.87c6.61.52,13.39-.86,19.15,1.13l5.92-2.95,5.48,1.33c2.2,1.91,2.21,4.81,2,8.06l-3.23,2.6c.85,4.43,2,8.36.37,12.56a25.26,25.26,0,0,1-6.84,9.59l13.33,12.67c3.09-2.62,6.17-2.59,9.29.46v5.27l-1.77,1.77c.17.2.31.54.51.59,1.68.34,3.37.64,4.92.92,2,4.74,2,4.7-2,8.16-.65.57-.88,1.62-1.47,2.77.67,5.55-2.7,9.82-6.23,14.24L257,267.05c.27,2.95.8,6.95.95,11a13.18,13.18,0,0,1-4.45,10.64c-1.23,1.12-2.39,2.31-3.49,3.39V313.8l1.06,2.14c-1,4.45-3.69,5.83-7.75,5.8a27.86,27.86,0,0,1-8.15-1.41l-2.08-2.07v-4.32l4.48-3.4,5.3.59V292.72a39,39,0,0,1-4.4.9c-1.65.16-3.33,0-5.16,0-3.24,7.86-2.84,16.42-4.66,24.85l-1.74,2.87c-9.45.69-9.62.68-13.68-1a29.67,29.67,0,0,1-1.21-3,10.68,10.68,0,0,1,0-2.39l4.69-3.54,5.87,1c1.45-3.15,1.85-6.9,3.36-10.28a6.65,6.65,0,0,0,.09-2c.22-2.53.47-5.06.78-8.29-3-2.64-6.16-6.15-6.71-10.91a24.79,24.79,0,0,1,4.15-17.36,17.48,17.48,0,0,0-3.24.55c-1.87.71-3.61,1.81-5.51,2.38a10.24,10.24,0,0,0-4.81,2.89c-1.8,2-4.5,2-6.7,3.14a1.77,1.77,0,0,1-1.46,0c-3.43-2.17-8.16-1.43-10.87-4.82h-4.54c.33,6.15-3.5,10.1-7.08,14.59a81.94,81.94,0,0,1-.83,10.21c-.62,3.37-1,7.16,1,10.91,2.55-.53,4.61,1.11,6.58,2.55,1.15.85,1.68,2.56,2.31,3.6-.45,3.18-2.1,4.9-5.36,6a8.25,8.25,0,0,1-7.06-2.84,13.37,13.37,0,0,1-3.85-7c-.43-2.39-1-4.75-.75-7.11.56-4.79-1.51-9.26-1-13.75l-5.81.91c-2.47,7.93-5.16,16.21-4,25.51,2.81,2.49,7.54,2.88,9.94,7.31l-3.12,4.6-6.76.8c-3.7,0-4.6-3.26-6.12-6.25,0-3.37-2.16-7-1-10.65,1.23-3.9.53-7.76.91-11.62C155.38,292.08,156,288.53,156.5,285ZM184,242.66l-1,1c-3.27,2.07-6.27,4.88-11.25,3.69-.79-1.54-1.76-3.41-2.7-5.25,1.81-1.5.43-3.53,1.22-5.32,1.64-1.92,3.32-4.07,5.2-6a6.23,6.23,0,0,1,5.06-2.11c1.15.08,2.32,0,6.35-2.36L184,229.15l2,1.66c0,1.31-.05,2.13,0,2.95a13,13,0,0,0,.38,1.73l.48-.09c0-2.77,0-5.53-2.88-6.74L182.18,226c-.65-2.87,1.57-2.78,2.63-3.8a17.06,17.06,0,0,0,2.38-3.82c-1.65-2-3.18-2-5.36-1.22a11.56,11.56,0,0,1-8.42-.19c-1.41,1.28-3.33.41-5,.7s-3.35.75-5,1.13l-.66-.66-5,5.58-2.2-2h-4.06c-2.23,1.54-1.26,3.64-1.43,5.66l4.37,3.21c-1.84,3.4-1.33,7.48-1.39,11.52,1.41,1.41,2.86,2.8,4.22,4.25,1.22,1.29,3.27,1.78,3.63,4.18-5.19,3.28-7.5,8.89-9.88,15.89l-1.23,8.64c1.86,4.29,4.31,7.57,9.41,7.81-.75,3.64-1.81,7-2.06,10.41-.37,5,.13,10.07-1,15.08-.52,2.3.43,4.73.73,7.08.41,3.16,1.56,5.41,3.48,6.9l6.56-1,2.57-3L160,313c-3.29-5.69,1.3-24,4.44-29.05l7.27-1,1,.92c.66,6.38,1.78,12.36,1.29,18.43a1.34,1.34,0,0,0,0,.49c.82,2.66.9,5.55,3,7.79,1.15,1.25,2.83,1.75,3.45,3h4.2c.82-.82,1.52-1.53,2.31-2.31v-2a8.27,8.27,0,0,0-7.49-3.62c-1.93-1.79-2.26-3.87-2.52-6.2-.49-4.47,1.36-8.67,1.1-13.08-.11-1.8,0-3.6,0-5.17,4.28-4.05,7.54-8.22,6.93-14.24l-15-2.51.25-1.85c2.29.38,4.57.78,6.86,1.12,2.52.37,5.06.62,7.57,1,2.34.37,4.65.87,6.54,1.23l7.05,3.1,1.72-1.88V264.3l-2.6-2.83L193,263.73c-2.37-.32-5.22-.67-8.06-1.1-.43-.06-.78-.58-1.21-.69-2-.47-4-.83-6-1.29-2.73-.64-5.45-1.32-8.16-2-.22-.06-.36-.38-.47-.5l1-1.13c3.05.59,5.82,1,8.55,1.67s5.34,2.07,8.42,1.7l-3.41-10.83c9.9-10.25,9.9-10.25,12.64-10.71l4-2.87-1.59-4.09-3.06-1.34L194,232.13v5.07a53.53,53.53,0,0,1-11,8.51v-2.05a4.93,4.93,0,0,0,.9-1.09l.19.19.82-.7-.32-.31A2.86,2.86,0,0,0,184,242.66Zm44.11,6.09-.2-.2-.82.7.32.31a2.93,2.93,0,0,0,.59-.9l1-1,1.87-1.25c.56-3.94,0-7.32-2.94-9.29a36.42,36.42,0,0,0-3.66.57,2.56,2.56,0,0,0-1.16,1.06l-.2-.2-.82.7.32.31a2.93,2.93,0,0,0,.59-.9h4.58l1.5,1.68c-.81,1.54-1.1,3.31-3.18,3.8.13,1.14.26,2.29.47,4.25.53-1.41.74-2,1-2.64H229v1.91A4.72,4.72,0,0,0,228.1,248.75Zm-45.21-9.18.19.19.82-.7-.32-.31a2.86,2.86,0,0,0-.59.91l-1,1c-.82,0-2-.35-2.4.06-2.36,2.32-3.83-.08-5.87-.53l.82-1.73,3,1.36,1.26-3.88c-.52-.88-2.28-1.47-1.87-3.37l.19.19.82-.7-.32-.31a2.86,2.86,0,0,0-.59.91c-4,1.94-5,5.74-5.57,10.06l1.85,2.9c4.24.39,6.74-1.84,8.72-5A4.93,4.93,0,0,0,182.89,239.57Zm18.33-6.89.86,0-.38-2-.65.09c.06.64.11,1.28,1.77,1.89H202c0,1.5,0,3,0,4.9-1.56,1-3.25,2.12-5.05,3.08-2.65,1.4-5.51,2.5-7.4,5-1.24,1.63-2.37,3.35-3.36,4.76,1.1,3.9,2.16,7.6,3.32,11.69l7.75-2.27,4.92,2.22a31,31,0,0,1,4-19.69C203,239.67,203.1,236,201.22,232.68Zm47.38-5.15c-3.58-.27-7.54-.86-11.48-.79a23.67,23.67,0,0,0-11.7,3.17,7.55,7.55,0,0,0-.76-2,25,25,0,0,0-2-2.11c-3-.57-3.37,1.41-4.16,2.93a1.25,1.25,0,0,0-.14.38l1,2.31,5.51,1.55c.38,3.72,4.41,2.21,5.86,4.32l2.34,3.1v5.4c-1.84,4.23-4.76,6.64-9.18,7.29,1,.61,1.83,1.09,2.64,1.55s1.7.93,3.39,1.85l-18.9,8.37c-2.54-2.13-5.2-.74-7.64-1.22a8.76,8.76,0,0,1-.43,1.66,11.91,11.91,0,0,1-1,1.37l1.7,3h3.79c5.56-5.29,12.57-6.8,19.75-8.74-3.87,6.73-6.06,13.69-4.87,21.78l6.63,8.74c-.29,3.16-.58,6.36-.87,9.56-2.07,1.52-.91,3.95-1.41,5.88-.74,2.88-2.5,5.41-2.72,8.42,0,.15-.52.27-1.11.56l-2.28-2.12h-3.88L214,316.13c.48,3.12.5,3.13,3,3.53.62.1,1.4,0,1.84.34,1.45,1.11,2.46.42,3.89-.21s3.33.25,4.33-1.88c0-.57-.33-1.63.06-2.2,1.23-1.78.77-3.72,1-5.62s.75-4,.95-6.09a42.83,42.83,0,0,1,3.4-12.36c7,.34,5.24.66,12.39-2v22.79c-2.29,3.42-5.09-1.37-7.63.65-1,1.12-2.94,2-1.95,4.3,3.29,3.53,7.55,1.93,10.62,2.29l3.19-2.35c0-2,.13-3.66,0-5.31s-.88-3.05-.91-4.58c-.12-5.48,0-10.95,0-16.23a12.1,12.1,0,0,1,2-1.93c3.84-2.23,5.37-6.14,5.87-10a27.76,27.76,0,0,0-3.26-17.56c-1.36-2.42-2.53-4.94-3.76-7.37,3.51-3.59,7.6-6.51,7.9-12.33l-.56-1c.87-4.48-2.24-8-.8-12.46l1.59-1.26v-3.2c-2.36-2.81-4.62-1.19-6.67-.13C249.71,225.16,249.26,226.12,248.6,227.53Zm-35.17-47.1c-.51-.81-1.18-1.85-1.75-2.74h-4.11L205,180.12c-.14,2.62.19,4.95,2.9,6.08-2,3.16-4.43,5.85-4,10,.37,3.55.66,7,2.69,9.87l3.78,3.43c-2.49,2.22-4.41,4.49-6.83,5.95a19.73,19.73,0,0,0-7,7.08c-1.27,2.16-2.8,4.17-4.2,6.27-.11.17,0,.46-.1,1.13l3.25-1,4.25.77.39-.71-2.26-1.35a42.85,42.85,0,0,1,2.94-5.24,29.67,29.67,0,0,1,4.22-4.24c.42-.36,1.25-.23,2-.35-1.13,3.17-2.26,5.89-3.05,8.7-.87,3.09,1,6,.94,9.07s3.23,5.06,3,8.43c-1.8,1.91-3.42,4.07-3,7.08-2.11,2.46-.41,5.41-1.26,8l-.74,2.4h2.64c1.27-6.44.88-13.11,4.52-18.85l3.44,1.89.92-.84.9.77,2.72-1.41c.71-2.94,1.45-5.95,2.16-8.89-2.32-1.52-4.45-2.68-4.3-5.49a7.12,7.12,0,0,1,6-5.15l5.27,3.25c2.67-.81,6-.81,9.06-3l-2.06-4.91,1.31-1.3c1.83,2.41,4.7,3.86,5.79,6.88,2.24.89,4.55,2.51,6.58-.39-2.34-2.35-4.54-4.62-6.83-6.81s-4.26-4.83-7.46-6.54c1.2-1.63,2.34-3.13,3.43-4.66s2-2.82,2.91-4.3c.71-1.19,1.24-2.49,1.93-3.9.61-3.65-.44-7.28-1.81-10.95l3.74-2.5v-4.49c-4.21-2.81-4.21-2.81-8.69-.93a8.67,8.67,0,0,1-.37,1.35,7.21,7.21,0,0,1-.64,1.11C226.88,178.82,220.25,179.27,213.43,180.43Zm-2.35,65.23a21.6,21.6,0,0,0-1.66,4.13c-.7,3.75-1.15,7.56-1.69,11.26l3.27,1.66L225.68,256c-5.17-2.07-7.88-5.34-7.94-10.31ZM261,232.83h-3.56c.33,2.06.63,4,1.06,6.63l3.86-3.74Zm-39.81,7.85v6l2.67-.21v-2.9Zm-36.34-3.06v-4.8c-1,2.13-3.32,2.61-4.61,4.19-.27.34,0,1.08,0,1.89l2.64-2.44ZM203.58,223c-2.86,2.6-2.88,2.6-1.59,6.55a18.18,18.18,0,0,1,0-3.35A22,22,0,0,1,203.58,223Zm23.26,18.44-.09-.88-2.62.38.05.5Zm-2.69,8.35.11.86,1.63-.39-.08-.47Zm-44-17,.11.86,1.63-.39-.08-.47Zm58-8.33.87-.11-.39-1.63-.48.08Zm-15.5,24.16h-.33v1h.33Zm-40.33-17h.33v-1h-.33Z"/><path class="cls-1" d="M239.11,115.66V109a5.86,5.86,0,0,0-4.28.22c-1.06.55-2.51.4-3.8.46-7.52.35-15.05.78-22.58.87-1,0-1.62,2.16-2.83.4-.17-.26-1.26,1.06-2.08-.15s-1.67,1.7-2.73.21c-3.38,1.4-7,.27-10.42.78L189.16,113v4.81c-2.39,4-4.79,7.36-10,6.78v-2.49c1.43-4.14,3.09-7.41,3.58-10.85s-.24-6.92-.44-10.61c.75,1,1.42,1.83,2.58,3.33v2.16l2.89,2.53c1.3-.08,2.91.46,4.18-1.68.64-3.36-1.67-7-1-10.93s-.72-7.71-1.12-12l-3.12-3.13a5.32,5.32,0,0,1,6.54-2,17,17,0,0,0,4.87.79l2.25-1.58-1.24-1.91a2.54,2.54,0,0,1,3.1-1.45c3.89,1.17,7.79,2.39,10.75,5.43a4.47,4.47,0,0,0,1.18.63c2.43-2.41,2.27-5,.47-7.92h3l4.22,4.22-3.73,6.06,3,5.92c-1.49,3.49-3.89,6.58-4.91,10.62l4.92,4.71v2.25l8.45-1.28,1.12-2.16-1.19-2.5h-7.1L221,99.12l2.82-1.46h5.64c2.16-2.78,2.14-3.46-.21-6-2.42-.13-5.18,3.13-7.39-1l1.49-2c2,.33,4.24-.68,6.28.91,2.57-2.06.82-4.94,1.48-7.47a6.86,6.86,0,0,0-6.47.82l-2.46-2.74c2.76-2.33,6.27-1.21,9.29-1.51l5.17-6.44c2.27,2,4.79,3.3,6.22,5.84a35.35,35.35,0,0,0-5,16.35c-.21,3.32-1.33,6.59-.64,10.14h5.12l2.44-2.44,7.35,7.57.56-.63,1.29,4c-1.57,1.67-3.61,1.66-5.7,1.71s-4.19-.61-6.15.88C241.53,116.05,240.26,115.66,239.11,115.66ZM204.75,81.31l-7.63,2.25v4.77l1.72,1.56c2.22-1.22,4.37-3.16,7.5-1.68-2.1,4.1-6,4.08-9.33,4.74v5.17l2.48,2.55c1.64-1.9,3.59-.69,5.57-.35l-3.44,2.08-1.42-.65-3.52,2.6c.61,1.58,1.12,2.87,1.78,4.59l7.63-1.53,3.9-7.6v-3.4l-2.67-2.51c1.47-.78,2.61-.06,3.64,1.19a4.81,4.81,0,0,0,1.35.77l1.87-2-1.47-2.7a29.37,29.37,0,0,0,2.8-1.57c.32-.23.41-.81.78-1.62l-2.9-.37-2.64,3.92h-2.62A10.81,10.81,0,0,1,209.22,89,31.12,31.12,0,0,1,212,86.24v-2.4l-5.77-5.77ZM215,106.23c-.23-1.64.63-3.62-1.55-4.31l-3.83,2.7,1.42,2.84Z"/><path class="cls-1" d="M307.17,146.33l1.36,1.37c4.25-.52,9.11,1.47,12.8-2.91h4.85a18.2,18.2,0,0,1,8.82,6.7,2.49,2.49,0,0,1-1.37,3c-1.68.75-3.44,2-5.37.92-2.13-1.25-4.74-.31-6.78-1.72-5.1.77-10-1.4-15.07-1-1,.06-2.73-1-2.92-.76-1.21,1.77-1.89-.92-3.51.34l-1.16,1.47c-3.16,0-6-.15-8.81,0s-5.6-1.06-8.09,1.23l-2.67-2.39-.35,1.72-3.63,1.18c-.16-.8-.36-1.81-.55-2.74-2.37-.27-2.39,1.79-3.26,2.81L266,148.85l4.11-.19,27.63-1.31c1-1.36-.5-2.46-.71-3.77a30.12,30.12,0,0,1-.06-4.69H282.62l-2.79-3.21c.74-1.47,14-1.32,17.17,0a12.88,12.88,0,0,0,.95-3.09c.13-2.82,0-5.65,0-8.76l3.72-.35.44-.51-2.21-.76.57-.58h-2.05l-1.81,1.9H292.2v4.88L286.91,131l-1.78-1.7c-.7-3.58.64-6.82,1.62-10.36-1.41-2.15-3-4.57-.49-7.5l-3.94-3.14c4.71-1.83,8.46.89,12.45.45s8.31-.1,13.16-.1c.64-.76,1.63-1.86,2.56-3,.76-1,1.45-2,2.21-3,3.86,1,5.75,4.4,8.9,7l-3.44,2.77c-.19,1-.48,2.5-.76,4,.25,2.59.52,5.26.83,8.5l-3.1-.94-1,2.35s.27,1,.68,2.43c-.74.25-1.78.53-2.76.93s-1.95.92-2.89,1.37v2.28c4.48,1.77,6.74-1.93,10-4l6.73,5.4v4c-2.43-.24-5,.85-7-.55-1.35.22-2.7.88-3.38.46-2.88-1.74-5.49-.84-8.34.39Zm-.65-22.84c.72.78.92,1.15,1.07,1.13a7.07,7.07,0,0,0,1.4-.43c-.6-.17-1.2-.34,4.58-.13-3.65-.22-3.65-.22-5.62,3.23C310.08,126.07,311.56,125.21,306.52,123.49Zm2.3-5.13v-7.54c-3.79-.72-7.65.86-10.67-1l-6.57,2.07c.2,2.17.4,4.31.59,6.45l1.37,1.36c4-.53,8.38,1,12.63-1a4.24,4.24,0,0,0,4.83.55c-.13-.16-.21-.34-.34-.38C310.22,118.7,309.77,118.6,308.82,118.36ZM272,151v.33h1V151Z"/><path class="cls-1" d="M143,102.59c-4.44.37-4.07,5.73-7.18,6.24-2.24,3.14-4.21,6-6.27,8.71-.16.22-.86,0-1.55,0,2.6-4.45,4.69-8.87,7-13.19.28-.52,0-1.31,0-2.21l2.63-2.21c1.95-7,3.66-13.1,5.48-19.62L140,77.13c.45-.45.75-1,1.16-1.12,2.77-.6,5.55-1.09,8.09-1.58l3.85,3.86c-.27.76-.36,2-1,2.65a17.49,17.49,0,0,0-4.2,7.79c-.46,1.75-1.66,3.3-2.45,5a13.36,13.36,0,0,0-.61,2.28c1.36.59,2.77,1.8,3.82,1.54,3.29-.8,7-.35,9.8-2.83,1.31-1.15,2.75-2.12,4.14-3.18,3.57,1.35,5,4.68,7.77,7-.55,1.06-.84,2.43-1.43,2.59-3.66.94-6.77,3.78-11.05,3.51.43-1.52.81-2.68,1.06-3.87a9.86,9.86,0,0,0,0-2H147.84c.32,1.16.3,2.41.91,3.07,2.38,2.56,4.62,5,2.24,8.76.48,3.18-.87,6.47.93,9.62.74,1.3.19,3.06.61,4.71,1.11,4.29,4.1,7.34,6.23,10.92a21.85,21.85,0,0,0,10,9.21c.85.37,1.44,1.36,2.11,2l-10.23,5.57c-1.81-2.4-4-4.71-5.52-7.41-4.06-7.24-7.75-14.87-6-23.38.85-4.11.37-8,1-12.65l-3,1.55c-.45,8.15-2.84,15.82-5.35,23.34-1.27,3.84-3.94,7.41-6.49,10.79-.56.73-.86,1.68-1.47,2.36-.31.35-1,.32-2,.56,1.39-5,4.54-8.82,4.27-12.94,1.16-2.42,2.68-4.2,2.76-6.05.21-4.66,2.43-9,2.13-13.65,1.76-2.46.24-5.63,1.89-8.23C143.54,105.89,143,104.1,143,102.59Z"/><path class="cls-1" d="M314.49,81.49l-3.9-2.93,1.87-1.87a15.86,15.86,0,0,1,9.2,6.3c1,1.39,2.33,3.24.7,5.71l-5.52-.55c-.24.58-.72,1.72-1.41,3.39l-3.78.17-5,4.17c2.53,2,4.34-1,6.58-.31,2.07.67,4.58-.73,6.26.83l6.24-1.06L328,93.41c3.95,3.86,9.86,5.19,11.74,11l-1.21,1.21c-2.18-.07-4.39-.11-6.38,1.3a7.45,7.45,0,0,1-2.7.68c-1,.21-2.06.39-3.34.62.38-2.53.79-5.31,1.19-8l-3.16-1.62c-1.9,1-3.79,1.92-5.64,0a18.68,18.68,0,0,1-3.62.92c-8.51.4-17.07.34-25.53,1.21-3.66.37-7.34.72-10.82.84l-1.42,1.42v8l-6.16,4.69L267,114.37c0-.6-.25-1.4,0-1.84,2.1-3.16,1.26-7.43,4-10.36-.59-3,1.39-5.52,1.08-8.58,2.41.15,3.06,2.2,4,2.74l6.61,1.06,1.26-1.11c.63-4.2-3-8.17-1.54-13,5.05,3.31,9.2,6.91,10.63,12.92l3.2,1.59c-.42-2.23-.76-4-1.16-6.08l4.73,1L300,92l-1.6-.43c-2-3.94-1.22-8.22-1.42-12.72L291.84,76l5.61-3.27,1,.84,1-.9c1,1.54,2.75.57,4,1.07A20,20,0,0,1,307,76a7.34,7.34,0,0,1,0,2.17c-1.42,4.06-1.35,4-1,7.76.2,2.12,0,4.28,0,6.93l3.61-1.32ZM298.36,95.88c-.16,2.71-.16,2.71.88,2.46Zm-12.7-5.22h-.33v1h.33Zm-14.33,19h.33v-1h-.33Z"/><path class="cls-1" d="M127.1,152.34l-4,2.41c-1.72-.85-3.57-1.39-4.1-3.54V118.76c0-1.5.6-3.53-.14-4.36-1-1.13.19-2-.48-3.07s-.38-2.82-.5-4.26l-1.61-1.67L112,107A61.37,61.37,0,0,0,112,114c.43,3.64-.86,7-1.13,10.57a42.11,42.11,0,0,1-2,10.14,24.35,24.35,0,0,1-5.33,8.76c-3.6,3.81-7.22,7.63-11.57,10.62a28.58,28.58,0,0,1-2.9,1.5c0-.67-.15-1.45,0-1.53,5.06-2.26,7.09-7.16,9.83-11.38,1.68-2.58,4-4.88,4.56-8.09.48-2.63,1.55-5.11,1.55-7.88a40.27,40.27,0,0,1,.94-6.58c.34-2-1-4.32,1-6.08-.38-2.35.89-4.94-1-7.14a11.47,11.47,0,0,0,.66-8.89,15.28,15.28,0,0,1-.6-4.71c0-3.61-.27-7-3.18-9.38.7-2,1.92-2.55,4.27-2.21l3.67,4.33,12.32-6.34-.63-6.06,1.08-1.14c4.33,1.27,6.47,5.13,9.55,7.66-.91,3.11-4.08,2.64-5.59,4.41l-.72-.64-12.93,3.16-3.23,4.71c1.95,3,1.2,6.16,1.37,9.67.79.33,2,1.34,2.71,1,3.48-1.61,7.1-.55,10.85-1l3.49-3.82h3.55c.13.32.36.6.36.88,0,3.07,0,3.07-1.2,4.67l-7.52,1.22c.26,3.6.6,6.77.71,9.94.11,3.49.12,7,0,10.49-.11,3.2.67,6.52-.85,9.82.82,1.65,1.82,3.54-.15,5.46,1.69,3.64,1.33,7.35,0,11.24h3Z"/><path class="cls-1" d="M236.79,130.36c1.94-1.24,3-4.31,6.21-4.85l6.94,5.48v2.22c-.16.16-.26.32-.4.39a1.51,1.51,0,0,1-.48.06h-7.49c-2.34,0-4.67.05-7,0s-4.54,1.47-7.09,1.09a54.09,54.09,0,0,0-7.49-.07,73.78,73.78,0,0,0,.07,8.28c.34,3-1.06,5.43-2.53,7.44-1.76,2.4-3.74,5-7.33,6-.55-.62-1.8-1.4-2.12-2.47-.78-2.53-3.09-3-4.87-4.23-1.34-.89-2.85-1.54-4.48-2.41,2.58-1.67,4.62,1.11,6.29.25,1.91-1,3.77-.57,5.86-1q.7-5.07,1.45-10.41c-4.73-1.16-8.93,0-13.14.91-.43.09-.83.68-1.21.64-5.24-.47-10.36.8-15.5,1.16l-1.86-3.88c5.31-.78,10.28-1.81,15.3-2.16,5.27-.37,10.58-.08,16-.08V122.09l5.36.74c.7-.7,1.35-1.09,1.59-1.66a5.75,5.75,0,0,0,.05-2c-.07-.09-.17-.3-.29-.32a7.34,7.34,0,0,0-1.92-.17c-4.24.5-8.48,1-13.61,1.69-.28-.08-1.5-1.86-2.7.32L196,119.22v-2c.23-.17.47-.51.72-.51,8.68-.14,17.27-2,25.79-.78l3-4.44c3.27,1.05,3.55,4.46,6.33,6.53l-5.44,2.78c-4.94,2.49-4.94,2.49-7.49,8l2.49,4.22c2.39-1.73,5-1.1,7.53-1.34S233.93,130.83,236.79,130.36Z"/><path class="cls-1" d="M179.49,346.66h-6.24v4.57l2.47,1.79c-2.5,1-4.44.46-6.95.75a16.12,16.12,0,0,1,2.21-2.66v-10l-2.59-1.22h7.47l-2.7,1.13-.2,4.5h6.79v-4.56l-2.24-.81c2.35-.77,4.24-.32,6.3.06l-1.65.73v10.24l2.76,2.27h-6.06C179.53,351.17,180.92,349,179.49,346.66Z"/><path class="cls-1" d="M243.23,354l-2.36-4.59c1-3.69,3-5.75,6.9-5.78v-3.69l-2.88-1,4.71-.27a4.05,4.05,0,0,1,.38,1.06c0,2.5-.07,5,0,7.5.09,2,.42,4,.68,6.45l-2.58-.87Zm4.61-2.4v-5.81h-3.46l.73.76-2.52.66c.72,1.81,1.22,3.08,1.75,4.39Z"/><path class="cls-1" d="M204.19,353.48c.35-2.26.68-4.38,1.06-6.85l-4.37-1.38c.38,3.05-.76,5.62,1.89,8.18h-4.88c.86-2.84,2.14-5.66.16-8.57l6.16-.62,1.44.61c.74,2.06,2.67,4.09.61,6.17l2.45,2.46Z"/><path class="cls-1" d="M267,349.15l-3.26,4.49h-3.28L258,351.16v-5.25l3.83-2.3A7,7,0,0,1,267,349.15Zm-6.88-3.41v5.81h3.6a4.79,4.79,0,0,1,.27-1.29,13.79,13.79,0,0,1,1.15-1.57,12.93,12.93,0,0,1-.82-1.2c-.27-.54-.46-1.11-.72-1.75Z"/><path class="cls-1" d="M192.61,350.72l-3.45,2.85h-2.78l-2-2.84a26.05,26.05,0,0,0,3,.9,27.41,27.41,0,0,0,3.34,0L186,348.31V345l4.78-1.72v3l-3.66-.74c.13.56.11.88.25,1C189,347.83,190.55,349.07,192.61,350.72Z"/><path class="cls-1" d="M216,340.65v2.58l6,4.76v2.53l-3,2.61,1.16-3.69L214,344.38C213.85,342.42,214.25,341.14,216,340.65Z"/><path class="cls-1" d="M225.09,352.25c-.58-2.3.76-4.88-1-7.09.66-1.11,1.37-2.29,2.47-4.11l.56,3.39,3.68.59-3.74.93v5.38l1.81.67v1.28C227.24,354.18,226.06,353.57,225.09,352.25Z"/><path class="cls-1" d="M251.72,353.55c1.35-3,2-5.78.36-8.7.52-.07,1-.15,1.43-.19s.65,0,1.11,0a6.33,6.33,0,0,1,.36,1.26c.21,2.32.38,4.65.62,7.6C254.85,354.13,253.49,353.53,251.72,353.55Z"/><path class="cls-1" d="M192.45,344.75h3.73l-.72,1.84c.09,1.53.14,2.44.19,3.36l-.49,0,1.72,3.38h-4.15A7.23,7.23,0,0,0,192.45,344.75Z"/><path class="cls-1" d="M236,352.64a7.43,7.43,0,0,0,.08-7.78h2.77c.3,2.77.07,5.76.18,9.25Z"/><path class="cls-1" d="M237,353.36l-3.56.38-2.36-3.1v-5.72l1.66-.43V351Z"/><path class="cls-1" d="M162,348.66v3.62c-1.75.91-2.29,3.69-5,3.38,1.33-1.59,2.67-3.17,4-4.75C161.24,350.12,160.36,348.83,162,348.66Z"/><path class="cls-1" d="M147,340.66l3.36-3c1.65,0,3.27-.05,4.88,0,.27,0,.51.62.76,1-2.72-.13-5.39-.15-7.56,2C148.18,340.87,147.48,340.66,147,340.66Z"/><path class="cls-1" d="M158,339.66c3.08-.34,3,2.45,4,4.12.28.48,0,1.24,0,1.88C160.24,343.94,159.58,341.48,158,339.66Z"/><path class="cls-1" d="M216,339.91h5.86v2.41c-1.26.67-1-1.46-2-1.74h-4Z"/><path class="cls-1" d="M213.7,349.43l3.86,3.76C214,354.36,214.45,351,213.7,349.43Z"/><path class="cls-1" d="M157,355.66a6.4,6.4,0,0,1-7,0Z"/><path class="cls-1" d="M145,350.66a6.4,6.4,0,0,1,0-7Z"/><path class="cls-1" d="M192,340.82h3.83l.33.44-2.15.63Z"/><path class="cls-1" d="M252.84,342.06l1.75-2.13.46,2.49-1.54.3Z"/><path class="cls-1" d="M162,345.66c1.37,1,1.37,2,0,3Z"/><path class="cls-1" d="M150,355.66c-.76-.15-1.91.49-2-1C148.75,354.81,149.91,354.16,150,355.66Z"/><path class="cls-1" d="M129,150.66c-.08,1.49-1.24.85-2,1C127.08,150.16,128.23,150.81,129,150.66Z"/><path class="cls-1" d="M146,352.66c-1.49-.09-.85-1.24-1-2C146.49,350.74,145.84,351.9,146,352.66Z"/><path class="cls-1" d="M145,343.66c.15-.76-.49-1.92,1-2C145.84,342.42,146.49,343.57,145,343.66Z"/><path class="cls-1" d="M156,338.66c.76.15,1.92-.5,2,1C157.23,339.51,156.08,340.15,156,338.66Z"/><path class="cls-1" d="M146,341.66l1-1Z"/><path class="cls-1" d="M130,149.66l-1,1Z"/><path class="cls-1" d="M129.89,149.57l.69-.82.32.31-.82.7Z"/><path class="cls-1" d="M147,353.66c-.33-.34-.66-.67-1-1C146.33,353,146.66,353.32,147,353.66Z"/><path class="cls-1" d="M148,354.66c-.33-.34-.66-.67-1-1C147.33,354,147.66,354.32,148,354.66Z"/><path class="cls-1" d="M182,240.66l1-1Z"/><path class="cls-1" d="M228,248.66l1-1Z"/><path class="cls-1" d="M184,242.66l-1,1Z"/><path class="cls-1" d="M237.74,232.24l3.17,1.49v3.86l-3.17,1.48-2.76-4C235,234.19,236.83,233.73,237.74,232.24Z"/><path class="cls-1" d="M172.75,228.44l-2.21,3.45-3.44-1.63v-3.57l3.16-1.41Z"/><path class="cls-1" d="M208.16,193.8l5.09-4.18-3.43-2.48,1.7-3.7,3.66,1.17-.77,4.87h5.15l5.42,4.44v4.46c-2.09,6.81-7.21,5-11.14,5.3l-5.68-3.05Zm5.23,7.81c3.42.06,6.93.68,9.48-2.34V195c-1.19-1.18-2.2-2.28-3.33-3.26-.25-.22-.87,0-1.48,0l1.09,2.19-3.18,3.2.48.53,4.15-1.53-1.75,3.29H212l-1.49-3.17,3.37,1.12.45-.62-3.19-3.55c-.81,2.06-1.36,3.48-2,5.22Zm2.35-9h-.5v2h.5Z"/><path class="cls-1" d="M226.84,187.4l1.35-3,3.65,1v2.62l-1.52,3.38Z"/><path class="cls-1" d="M155,352.46l-2.31.25L149,349c.15-3.45,2-5.47,5.61-6.4l1.16,1.92-3.93.37L150.66,349C152.29,349.93,152.61,352.26,155,352.46Z"/><path class="cls-1" d="M154.89,351.57l.69-.82.32.31-.82.7Z"/><path class="cls-1" d="M96.22,385.81c-.67-.25-.57.31,1.09,1.26l1.5.17Z"/><path class="cls-1" d="M106.46,393.63c2.13.83,4.65,1.61,3.68.36-2.24-.53-2.57-1-5-1.55-1.67-.94-2.71-2-2.31-2-.66-.22-2.43-1.71-3.52-1.91a21.72,21.72,0,0,0,3.3,2.57q1,.61,2,1.2c.7.37,1.46.69,2.23,1C107.35,393.79,106.67,393.6,106.46,393.63Z"/><path class="cls-1" d="M287.07,409.66l-1.16.35A11.59,11.59,0,0,0,287.07,409.66Z"/><path class="cls-1" d="M379.68,341.4c-.54.71-.72,1-.7,1.11C379.46,341.84,379.85,341.28,379.68,341.4Z"/><path class="cls-1" d="M391.67,325.46l-.66,1A4.07,4.07,0,0,0,391.67,325.46Z"/><path class="cls-1" d="M287.07,409.66l3-.91C290.18,408.47,288.5,409.16,287.07,409.66Z"/><path class="cls-1" d="M130.1,403.78c-.61-.22-1.12-.38-1.6-.51l1.46.57Z"/><path class="cls-1" d="M237.4,422.37l-.94.12a6.53,6.53,0,0,0-.75.36Z"/><path class="cls-1" d="M198,423.5a2.08,2.08,0,0,0,1.59-.68,5.37,5.37,0,0,1-2,.25C197.58,423.18,197.69,423.31,198,423.5Z"/><path class="cls-1" d="M137.36,409.19l-1.06-.32Z"/><path class="cls-1" d="M265.19,417.29a.68.68,0,0,0,.4.1C265.57,417.33,265.42,417.3,265.19,417.29Z"/><path class="cls-1" d="M62.64,355.9s0,.05-.07.07C62.76,356.09,62.84,356.12,62.64,355.9Z"/><path class="cls-1" d="M95.4,387l-.53-.34a.61.61,0,0,0-.29.19Z"/><path class="cls-1" d="M409.17,293.32l-.08.14C408.76,294.37,409,293.86,409.17,293.32Z"/><path class="cls-1" d="M290.54,15c3.36,1.81-6-1.6-.88,1C289.24,15.59,294.85,17,290.54,15Z"/><path class="cls-1" d="M131,404.26l1.46.63C131.8,404.58,131.35,404.39,131,404.26Z"/><path class="cls-1" d="M289.66,16h0l.53.26Z"/><path class="cls-1" d="M424.76,210.84a3.51,3.51,0,0,0-.22.86S424.66,211.47,424.76,210.84Z"/><path class="cls-1" d="M415.27,272.67l.48-1.48C415.54,271.77,415.4,272.25,415.27,272.67Z"/><path class="cls-1" d="M421.18,178.46a13.88,13.88,0,0,0-.35-2.25c0,.11,0,.22,0,.36A6.75,6.75,0,0,1,421.18,178.46Z"/><path class="cls-1" d="M413.09,145.62c0,.19.06.42.09.63s.24.69.36,1Z"/><path class="cls-1" d="M12.73,269.36a6.75,6.75,0,0,1-.08,1.62C12.9,270.37,14.32,275,12.73,269.36Z"/><path class="cls-1" d="M130,404.08a1.84,1.84,0,0,1,1,.18l-1-.42C129.84,403.88,129.79,403.94,130,404.08Z"/><path class="cls-1" d="M416.57,177.85l-.82-5.21C416,174.1,416.25,176,416.57,177.85Z"/><path class="cls-1" d="M78.49,53.65l-.88.83A6,6,0,0,0,78.49,53.65Z"/><path class="cls-1" d="M412.05,157.46a22.74,22.74,0,0,0-.41-3,3.4,3.4,0,0,0-.3-.55Z"/><path class="cls-1" d="M12.65,271h0Z"/><path class="cls-1" d="M26.4,302.88c-2.2-4.5-1.7-1.8-2.55-2.58-2.6-5.42-.62-2.77-1.09-4.79-.83-1.68-1.7-3.11-2.48-4.44a28.08,28.08,0,0,1-1.87-3.95c0-.24-.11-.76.25-.22a33.54,33.54,0,0,1-1.51-3.26c-.26-.63-.53-1.29-.8-2l-.71-2.13a72.94,72.94,0,0,0-3-7.91,1.86,1.86,0,0,1,0-.64c-.16.83-.49,1.05-.79,1-.61-2.19-1.56-4-1.32-4.9a5.25,5.25,0,0,0,.89,2l-.83-2.23c.11-2.25,1.09,3.06,1.58,2.92-.72-2.2-1.57-4.56-2.34-6.81a56.2,56.2,0,0,1-1.54-6.2c.51-.87,2,8,1.59,3.29l.48,2.7.59,2.68c-.06-4.31.8,3.22.9-.77-.22-.87-.42-1.65-.59-2.35s-.31-1.34-.44-1.92c-.28-1.17-.54-2.14-.8-3.11a50.86,50.86,0,0,1-1.59-7.42c-.65-1.52-.46.63-1.1-.9a37.64,37.64,0,0,1-1-5.6,17.33,17.33,0,0,1,.12-3.15,15.47,15.47,0,0,0-.52-6.74c-.64-1.88-1.52-2.56-1.48-7.94l.9,1.77a25.28,25.28,0,0,0-.82-5.48c-.25-1-.44-2.1-.28-5.76.33,1.29.4,5.47.46,4.41.48-4.74-.52-3.33-.63-7,.22-.25.44-.5.68-.75,0-1.86,0-3.76,0-5.69s-.1-3.92,0-5.92c.15-4,.16-8.11.67-12.2.15.48.19,1.9.62,0,.13-1.29.25-2.6.37-3.92l.22-2c.1-.67.21-1.33.32-2,.45-2.68.93-5.39,1.45-8.08s1.31-5.31,2-7.9l.49-1.92c.2-.63.39-1.26.59-1.88.38-1.23.77-2.45,1.14-3.64l.43-3.84c.24-.85.75-1.49.55-.55,1.41-3.63-.29-.3.06-2.15.65-2.12,1.23-2.68,1-1.29,1.37-6.76,5.71-18.8,9.29-25.13L23.44,126c.6-1.28,1-2.28,1.39-3.16s.57-1.65.79-2.4A18.47,18.47,0,0,1,28,115.29l-.36.95c3-5.35,6.1-11,9.45-16.11.82-1.28,1.62-2.55,2.44-3.77L42,92.91c.83-1.11,1.65-2.18,2.45-3.19a32.65,32.65,0,0,1,2.41-2.81c.21-1,2.16-3.28,4-5.53l1.33-1.65c.43-.52.85-1,1.18-1.44.68-.88,1.09-1.57,1-1.91,2.52-2.45,3.49-3.26,4.67-4.35s2.71-2.35,6.25-5.76c1.83-1.87,2.27-3.26,4.55-5.59l.48.39,2.78-3.49c.72-.37,1.49-.69,2.25-1l2.22-2.09c-1,.76-2.15,1.46-2.13,1.21a59.33,59.33,0,0,1,5.9-4.81A14.87,14.87,0,0,1,85,48.82l4.3-3.63c1.44-1.21,3-2.29,4.45-3.45-.06.35-1.56,1.49-2.69,2.46,4.57-3.93,1.26-.09,5.46-3.68-.69.3.12-.54.15-.71.63-.3,1.38-.8,2.3-1.3s1.94-1.1,3-1.74,2.16-1.33,3.24-2,2.12-1.38,3.13-2l-.56.8q2.75-1.48,5.6-3.1c1-.53,1.9-1.09,2.88-1.62l3-1.52c2-1,4-2.1,6.12-3.1l6.38-2.83c-3.15,1.16-2.74.18-.24-1l1.26.16c1.47-1.08-2.73.93.43-1,3.3-1.21,2.47-.16.67.75l3.89-1.73c.31.1-.59.55-.74.87,1.5-1,7-2,9.23-3.4l.29.11,5.87-1.94c1.74-.55,3.33-1,4.85-1.44l4.55-1.33c1.56-.44,3.22-.78,5.07-1.22,0-.58,3-1.1,5.09-2l8.81-1.15c3.09-.36,6.33-.59,9.68-1l2.22-.43c.37-.1.46-.16.46-.23s-.31-.23.75-.48c.39.48,7.12-.08,3.66.56,2-.16,3.67-.37,5.18-.41l4.3-.19,4.7-.28,6.42-.11c-1.11-.23-2.37-.35-1.72-.51,1.88-.05,4.25.3,4,.54l-.49,0a92.84,92.84,0,0,1,18.67,1.85c3.14.47,6.16,1.22,9,1.73,1.41.26,2.77.49,4.07.66s2.51.42,3.66.54l-.51-.06,4.7.74,2.36.38,2.33.49c4.2,1.22-2.63-.32.42.84,2.52.46,4.77,1,6.83,1.48s3.91,1.25,5.72,1.87l2.68.93,1.34.45,1.33.51c1.78.68,3.62,1.33,5.65,1.95a21.81,21.81,0,0,0,2.54,1.42c1,.53,2.06,1.09,3.24,1.65s2.45,1.13,3.78,1.7,2.71,1.15,4.07,1.84c2.73,1.32,5.55,2.63,8.12,4a74.18,74.18,0,0,1,6.62,4.12l-.26-.56c2.16.82,2.31,1.51,3.67,2.49-.06-.36-1.92-1.59-.63-1q3.1,1.88,6.22,3.82c1,.67,2.1,1.27,3.1,2l3,2.15,3,2.18c1,.74,2,1.44,3,2.25l5.8,4.75,1.45,1.2,1.39,1.27,2.77,2.54c1.85,1.7,3.72,3.36,5.44,5.18l5.26,5.32,5,5.51a18.7,18.7,0,0,0,4.51,3.88c1.09.72,2.28,1.7,4.9,5.45L372,80.47c.62.66,1.26,1.32,1.86,2l1.76,2.12c1.16,1.43,2.31,2.88,3.46,4.33s2.19,3,3.26,4.52L385.47,98c2,3.13,3.92,6.3,5.87,9.41,1.78,3.2,3.69,6.3,5.47,9.4a10.12,10.12,0,0,1-1.36-1.85c1,2.88,4.95,10,5.34,9.88.85,2.06-.11.62.25,2,.93,2.89,3.65,6.7,3.75,8.4,0,.29-.44-.74-.69-1.23.94,1.75,3.21,8.6,3.06,6.64l2.49,7.27c.41,1.15.79,2.27,1.15,3.36.17.54.34,1.08.49,1.61s.25,1.08.35,1.61c1.31,2.53,2.19,8.92,3.13,9.6-1-.15,1.43,9.32,2.28,12.63-.47-1.07.22,3-.38,1.71.74,3.79,1.25,7.3,1.64,6.57-.1,3.61.63,7.13,1,10.31.21,1.59.4,3.08.47,4.43a9.47,9.47,0,0,1-.31,3.58q.29,4.31.57,8.47c0,2.78.08,5.51.12,8.21,0,.68,0,1.35,0,2s0,1.34-.08,2c-.05,1.33-.11,2.66-.16,4l-.18,3.94c-.12,1.3-.24,2.6-.37,3.89-.21-.12-.24-.89-.18-2,0-.54.09-1.16.15-1.82s.08-1.36.12-2c.16-2.76.31-5.42-.18-5.22-.07,2.45-.1,4.65-.12,6.72s-.22,4-.33,5.93c-.07,1-.13,1.93-.2,2.91l-.12,1.49c-.06.49-.13,1-.2,1.51-.29,2-.65,4.19-1.1,6.59s-.15-1.48-.16-2.35c-.17,1.22-.34,2.42-.5,3.62s-.46,2.36-.69,3.53c-.51,2.32-1,4.61-1.49,6.86l-1.74,6.59c-.27,1.09-.54,2.17-.8,3.25s-.59,2.13-.88,3.18a8.27,8.27,0,0,1,.34-1.84c-.5,1.65-1.36,3.77-.91,3.71l.41-1.63c1.42-2.45-.92,6.92-.75,7.32-.06-3.14-3.36,8-3.09,3.13-.33,1.09-.66,2.49-.31,2.35-.67,1.54-1,2-.7.27-.49,1.46-.79,2.44-1,3.17s-.36,1.18-.49,1.63a26.22,26.22,0,0,1-1.62,4.29c-.17-.1.21-1.17.23-1.79a38.85,38.85,0,0,1-3.84,9.69c0-.31-.37.12.27-1.15-.9,1.83-1.68,3.54-2.41,5.22l-.54,1.24c-.2.4-.4.81-.59,1.21-.4.8-.79,1.59-1.18,2.4-.79,1.6-1.6,3.22-2.52,4.92a60.93,60.93,0,0,1-3.32,5.23c.68-2.69-1.87,2.41-2.75,2.4-.4.69-.78,1.4-1.2,2.08l-1.29,2,1.41-1.36c-1.22,1.71-2.25,3.4-3.27,5a29,29,0,0,1-3.23,4.52l.85-1.32.78-1.37c-.72,1.1-1.52,2.14-2.32,3.19l-2.38,3.14,3-3.34c-2.33,3.59,1,.22-2.6,4.51.63-1-2.58,3.36-4.43,4.68h0a38.91,38.91,0,0,1-4.61,5.74c-.71.45-.18-1-.64-.75a29.68,29.68,0,0,1-3.87,4.63,57.37,57.37,0,0,0-4.22,4.89c.53-.7.28-1,0-.88l-.91,1.55c-1.53,1.22-1.79,1.36-1.78.91-4.34,3.95,2-.58-3.35,3.89.37-.4.13-.28.91-1.12-5.33,4.54-10,9.11-15.34,12.77-1.95.55,4.35-3.57,2.24-2.75A166.91,166.91,0,0,1,317,393.32l1.5-.74c-.56,1.51-6.08,2.83-9.84,5.39,1-.56,1-1.19.81-.94-2.78,1.3-5.56,2.73-8.67,4.41-1.58.81-3.27,1.6-5.07,2.48L293,405.29l-1.49.72-1.58.67,1-.66c-1.74.53-4,1.34-6.24,2.18-1.14.4-2.27.87-3.38,1.21l-3.1.95c-1,.62-3.16,1.27-1.74,1.22-1.5.28-2.95.63-4.38,1s-2.86.65-4.26,1c-2.79.74-5.48,1.63-8.19,2.3l-4,1.07c-1.34.34-2.66.71-4,.92a64.88,64.88,0,0,1-8,1c1.26-.22,3-.76,2-.58l-2.23.45c-.75.14-1.5.23-2.25.35l-4.5.69c.77.37,1.22.13,3.17.25a33.18,33.18,0,0,1-5.91,1.22c4.05-.83-.11-.67-1.9-.83.31.12-.28.32-.12.46-4.82-.46-.72,1-7.27.92l.33-.26-1.79.25-1.78.19a36.52,36.52,0,0,1-3.73.22c-1.1-.51,2.59-.32,2.74-.77-3.68.12-7.27,1.29-10.62.62,1.57-.12,3.83-.06,5.39-.29-1.82-.24-2.83-.38-3.73-.46s-1.67-.07-3-.15l.27,0c-2.08-.15-4.16-.24-6.22-.44.52.1,1,.17,1.57.23a22.27,22.27,0,0,1-7.23.32c-1.28-.09-2.6-.18-4-.25a39.45,39.45,0,0,0-4.43-.15c6.11-.15,1-.38,1.58-.93-1.56-.35-3.93-.82-3.23-.9a16,16,0,0,1-4-.42,21.29,21.29,0,0,0-4.94-.57c-.15-.22-3.09-.53-2.35-.91-3.78-.47.83.49.47.67-5.94-.32-13.35-3.52-21.7-4.94-3.55-.84-5.67-1.33-7.75-1.72-1-.2-2.07-.4-3.24-.67s-2.47-.7-4.09-1.22c-2-1.11,2,0,2,0-1.68-.79-3.17-1.42-4.66-2s-3-1-4.61-1.65c.71.12.1-.3-.78-.93-2.57-1.07-2-.1-5.25-1.84a14.49,14.49,0,0,1,2.87.4c-1.54-.57-3.09-1.1-4.65-1.65s-3.08-1.23-4.64-1.92c-.66-.7,2.06.46,3.23.8-3.47-1.58-9-4.11-10.25-4.32l2.06,1.38c-1.23-.67-.42-.74.54-.36,3.12,1.09,4.14,2.28,4.22,2.54l-2.23-1c.85,1.06,3.07,2.12,5.6,3.18,1.25.57,2.65,1,4,1.47s2.61,1,3.72,1.47l-2.2-.05,4.88,1.38c.44.32.8.63.75.78s-.5.16-1.63-.28c3.09,1.73,3,.86,5.66,2.38.29.19.13.17-.17.09l3.3,1c-.69-.07.34.76-1.6-.11a31,31,0,0,0,3.9,1.58c1.21.37,2.31.65,3.29.89a15.7,15.7,0,0,1,4.45,1.51l-.5-.11a23.27,23.27,0,0,0,3.75.9c.58.07.64,0,.64-.11s-.24-.56,2.94-.07l3.8,2.59,1-.37c.85.22,2.55.63,2.18.8,3.31.3-.49-.38,1.47-.35a54.83,54.83,0,0,0,7.36,1.77c2.49.4,4.56.79,5,1.35,1.58-.21-4-1,.57-.6.56.62,1.86.8,3.5.95a30.25,30.25,0,0,1,5.51.6c-1.25.4-4.89-.32-1.07.62a13.25,13.25,0,0,1,5.08.33,40.62,40.62,0,0,0,5.75.72c.1-.36,1.89-.31,4.34-.16s5.57.17,8.33.13c-.36.33,10.37.38,15.52.23l-.15.13c.48-.4,2-.67,4-.89l3-.31c1.05-.1,2.09-.29,3-.43-.1.45-.77.73-2.83,1.15,1.21-.11,2.41-.29,3.61-.43a19.35,19.35,0,0,1,4.25-1l-.83.66c1.2-.16,2.4-.35,3.61-.57l3.72-.82c1.27-.28,2.59-.55,4-.8l2.13-.35c.72-.14,1.47-.27,2.23-.4.23-.57-5.08-.33,1.22-2.08.29.22.63.63-1,1.11a19.41,19.41,0,0,1,3-.79l-2.45,1c2.8-.42,1.36-.7,3.57-1.15,0,.39,1.69-.09,1.45.29a21.67,21.67,0,0,0-2.77.6c1.25-.24,2.64-.47,3.85-.63a27.76,27.76,0,0,1,2.76-.32c-.27-.15-.13-.51,1.66-1.05,4.64-1.3,1.72,0,4.49-.53,1.07-.52,4.08-1.22,4-1.81a5.11,5.11,0,0,1,2.25-.27c1.14-.53,3.93-1.39,6-2.23s3.53-1.53,2.1-1.33l-.61.19.37-.17h0c1.86-.86,3.79-1.64,5.75-2.39l5.87-2.39a97.74,97.74,0,0,0,11.39-5.19l.08.18c2.15-1.12,4.44-2.54,6.63-3.8a44.8,44.8,0,0,0,5.54-3.58c1.22-.76,3.06-1.48,2.66-.95,1.54-1.05,2.36-1.67,3.4-2.35s2.24-1.46,4.53-2.85c-2.88,2.41,1.23-.47-3,2.38,4.05-2.6,5.17-2.93,9.07-6.37-1.1,1.48,3.27-1.7,5-3.22l-2.91,1.77c2-1.63,3.82-3,5.66-4.32l-.56,1.27a46.42,46.42,0,0,0,5.53-4.43,64.82,64.82,0,0,0,4.65-4.54c1.42-1.53,2.8-3,4.23-4.33.7-.68,1.45-1.3,2.17-1.93a27.72,27.72,0,0,1,2.23-1.79c1.48-2.21-4,3.63-2.72,1.56,3.2-3.2,7.2-5.94,8.17-7a22.44,22.44,0,0,0,3.75-4.78,24.91,24.91,0,0,1,1.36-2.09c.58-.79,1.34-1.71,2.37-3-.7.5-1.67.71,1.15-3.23,2.86-3.5,4.23-3.78,2.61-1.41-.66.87-1,1.24-1.08,1.15-.83,1.21-2,2.79-.63,1.53l.18-.61c.79-.81,2.15-2.45,3.23-3.72s1.8-2.23,1.54-1.5c1.81-2.95.54-1.43-1,.57,1.82-2.28,3.14-4.14,4.46-6,.65-.95,1.35-1.87,2-2.92s1.4-2.16,2.26-3.4c-.63.74-1.33,1.33-.82.53,2.48-3.64,2.9-4.52,3.09-5.12a9.17,9.17,0,0,1,.34-1,22.43,22.43,0,0,1,1.24-2.53c2-2.77.15,1.48,2.84-3.89,2-3.08.94-.38.38,1,.58-1.25,1.2-2.42,1.83-3.53s1.16-2.18,1.73-3.16c1.14-2,2.22-3.65,3-5l-1.12,2.68c.66-1.61,1.33-2.86,1.93-4.17-.35.44-.76.86-1.14,1.28.86-1.47,1.36-2.82,1.55-2.7.42-1.73-1.25.9-.25-2.45,1.11-2,2.57-6.36,3.37-6.88-2.95,6.47.93-.47-1.38,5.1a42.6,42.6,0,0,1,1.73-3.93c.15-.21,0,.28-.12.72,3-6.16.46-3.2,3-9.78,0,.48.32.16.66-.43a9.3,9.3,0,0,0,.81-2c-.89,2.71-1,1.1-.43-1.46,1.65-4.21,1.32-4.73,2.07-7l-.95,2.53a8.49,8.49,0,0,1,.42-2.3c.28-1,.59-2.34.95-3.87.34-.19-.56,2.8-.15,1.75a22.89,22.89,0,0,1,1.56-5.64c.36-1,.79-2.06,1.08-3.17a29.12,29.12,0,0,0,.7-3.49c.72-2.16.7-.07,1.28-2a46.34,46.34,0,0,1,1.16-5.62,33.08,33.08,0,0,0,1.06-5.86c-.74,1.57-.67,1.86-.47-2.2l-1.22,9.37.31-6.09c-.5,2.8-.63,6-1.11,7.63.21-2.9.19-2.59-.4-1.32a23.1,23.1,0,0,0,1.09-5.77,51.42,51.42,0,0,1,.9-6.25l1.15.29a57.86,57.86,0,0,0,1-9.62c0-1.64,0-3.34.11-5.17s.2-3.81.32-6c-.11.94-.15,1.88-.3,2.82-.38-1.2.06-5.43-.06-8.27.39.27.58-1.51.84-2.73-.29.15-.15-6.45-1-7.22.13-1.31.32-2.63.36-3.94-.34-7.11-1.63-8-2.39-14.75.68,2,.57-1.13,1.44,3.37-.27-2.26-.45-4.31-.73-4.31a21.36,21.36,0,0,0-.63-3.86,23,23,0,0,1-.8-4.42,10.76,10.76,0,0,1-1.19-3.68c0-.28.19,0,.19,0a10,10,0,0,1-.56-1.65c-.25-.68-.47-1.08-.45.05-.22-7.11-4.5-19-5.63-25-.42-1.17-.85-2.4-1.29-3.65s-1-2.5-1.49-3.74c-1-2.48-1.92-4.94-2.81-7,.22.22.19-.06.49.73-2.16-5.84-2.54-3.07-5-9.67-.51-1.75,0-1,.51,0s1,2.18.66,1.09c.43-.74-.6-2.63-1.84-4.92a64.91,64.91,0,0,1-3.6-7.24l.62,1c-1.41-3.39-4.64-7.61-7.8-12.64,0,0,.25.18.19-.08-.68-.77-1.45-1.75-2.28-2.87s-1.81-2.28-2.75-3.54c-1.95-2.47-3.84-5.23-5.7-7.4,1.48,1.11,1.79,1.9,1.55.73-1.62-2-.22,1.09-3.43-2.87-.8-1.47-2.81-4.58-2.75-5.27,1.06,1.22,2,2.53,3,3.79A13.15,13.15,0,0,0,377,79.07c-1.08-1.15-2.22-2.25-3-3.26l.45,0c-4.84-5.63-5.62-5.06-11-10.91l.39.76A13.15,13.15,0,0,1,360.9,63,11.83,11.83,0,0,0,358,60.22l-.4-1.48c-.55-.46-1.31-1.09-2.19-1.84l-3.1-2.35-3.42-2.62c-1.13-.89-2.22-1.78-3.27-2.52a38.08,38.08,0,0,1,5,3.35l5.34,4c-2.11-1.9-7.33-6.32-8.69-7a22.68,22.68,0,0,1,2.91,2.33A123.92,123.92,0,0,1,339,44.16c.89-.35-2.06-2.57-5.57-5.11s-7.73-5.17-9.14-6.81c-1.1-.61-2.18-1.25-3.26-1.88s-2.21-1.2-3.31-1.81c-2.21-1.23-4.37-2.57-6.64-3.83L304,21,302.2,20l-1.92-.86-3.95-1.74c3.33,2.76-3.14-1.35-3,.07-1.25-.53-2.14-.83-2.72-1.06a5.28,5.28,0,0,1-1-.44c-2.47-1.2-4.95-2.43-7.45-3.6-.88-.47-.24-.34.6-.11s1.85.59,1.78.41l-2.76-1.13a3.05,3.05,0,0,1-.9-.51,5.42,5.42,0,0,0-2.2-1.25c.63.67-2.18,0-5.38-1.26l4.4,2a37.34,37.34,0,0,1-4.58-1.35c-1.13-.41-2-.74-2.81-1.11a30.86,30.86,0,0,0-7.54-2.24l2.67.33c-2.1-.53-6-1.33-9.93-2.1l-2.91-.54c-1-.12-1.89-.23-2.76-.32a29.72,29.72,0,0,0-4.37-.18c-.73-.27-1.68-.77.22-.54C235.52.75,222.81.87,214.82.36l.79-.28a38.39,38.39,0,0,1-5.77.23c.13-.12.78-.32-.12-.31a54.76,54.76,0,0,1-7.66.56l2.17-.39a47.37,47.37,0,0,0-6.79.35c-2.05.21-3.92.48-5.73.76-3.6.71-7,1.45-11.13,2.14-.06-.44-2.05-.39-4.52-.16a70.76,70.76,0,0,0-7.37,1l.11-.15c-2.88.62-5.53,1.21-8,1.88s-4.84,1.5-7.16,2.26-4.56,1.65-6.89,2.52-4.72,1.73-7.2,2.82a64.62,64.62,0,0,0-6.32,1.89c-2.48.87-5.21,2.09-8.08,3.29l-2.17.93c-.72.33-1.42.69-2.14,1l-4.29,2.07c-2.86,1.3-5.52,2.77-8,4,1.53-.67.1.73-1.54,1.74-2.35,1-5.69,4.15-5.78,3.22l.77-.46c-2,.36-6.44,3.19-9.76,5.58l0,1.26a46.34,46.34,0,0,0-7.61,4.75c-1.29,1-2.58,2-3.87,3-.63.52-1.29,1-1.9,1.54L77.09,49l-6.6,5.87a32,32,0,0,1-4.89,3.91c-.83,1-1.88,2-2.82,3.07S60.88,64,60.09,65l-.32-.49-3.41,3.41c-1.06,1-1.94,2.12-2.91,3.19l-3,3.5-1.75,2.05-1.88,2.45.8-1.68a18.56,18.56,0,0,0-2.82,4.9c-.31.73-.6,1.44-1,2.2a27,27,0,0,1-1.53,2.51l-1.48.63c-1.25,1.77-2.54,3.52-3.84,5.27l-1,1.31L35,95.63l-1.81,2.71c-1.2,1.83-2.41,3.64-3.5,5.51s-2,3.84-2.89,5.8c0-.18-.13-.52.53-1.77-2.2,3.45-7.83,13.79-6.14,13-.83-.29-3.8,8.12-5.28,12.55l-.26-.89a44.33,44.33,0,0,1-2.37,9.36c-.52,1.19-.83.92-.08-.66a12.38,12.38,0,0,0-.85,2.29c-.16.59-.24,1-.33,1.52a21.15,21.15,0,0,1-1.33,4.48l.27-2c-1.4,4.25-1.19,3.95-1.42,6.45-.51,2.77-2.36,8.13-3,8.66a15.75,15.75,0,0,1-.65,5.68c-.26.31-.17-.65-.13-1.13C5.3,169,5,170.56,4.67,172s-.36,2.77-.51,4A47.5,47.5,0,0,1,3,183.17c-.19.08-.32.4-.43.82.15-1.48.42-2.87.63-4.14s.42-2.38.58-3.31c.32-1.86.52-2.92.5-2.7-.5-.1-1.39,4.65-1.45.74-.13,1.95-.26,4.58-.49,7.3a68,68,0,0,1-.69,7.87,2.78,2.78,0,0,1-.25.6v-.49a18.74,18.74,0,0,0-.25,2.95c-.19,1.49-.32,2.43-.42,3.87a10.51,10.51,0,0,0-.5,3.25c-.13,1.61-.21,3.45-.21,4.65.57-.17.41,3,.94,0,0,.38-.08-.46,0-2.05,0-.36,0-.78,0-1l0,.16c.1-1.57.23-3.61.37-5.94a22.61,22.61,0,0,1-.23,6.51c.28,1.25.66,2.61.81,3.37a60.52,60.52,0,0,0-1.08,6.11c-.17,1-.27,2-.36,2.79a6,6,0,0,1-.32,1.55c.13,1.84.24,3.83.35,5.86,0,1,.13,2,.24,3s.22,2,.33,3c.22,2,.45,3.86.74,5.53a33.32,33.32,0,0,0,1.12,4.22,6.54,6.54,0,0,1-.07,3.2c-.25-1.18-.41-2.6-.64-3.23.19,1,.39,2.3.59,3.65.1.68.21,1.37.31,2.06s.27,1.37.4,2c.54,2.63,1.07,4.85,1.52,5.27.28,2.61,0,1.92-.2,1.45-.1-.23-.17-.4-.14-.07a23.49,23.49,0,0,0,.59,2.9l-.43-.91a80.09,80.09,0,0,0,1.93,9.64c.9,2.94,1.89,5.71,2.88,8.51s2.23,5.58,3.27,8.65c.5,1.55,1.11,3.12,1.68,4.79s1.11,3.45,1.63,5.35a6.6,6.6,0,0,1-.41-1.82c.36,1.05.71,2.12,1.1,3.17l1.29,3.13c.88,2.08,1.77,4.18,2.71,6.26L24,308c.53,1,1,2.05,1.58,3.05l1.7,3c1.15,2,2.25,4,3.41,6l3.6,5.8c.6,1,1.16,1.95,1.77,2.9l1.85,2.82c1.22,1.87,2.4,3.77,3.56,5.65,2.88,4.11,3.59,4.26,5.73,6.46l.19,1.24c1.27,1.22,2.61,2.37,3.9,3.56a41.14,41.14,0,0,1,3.41,4l3.15,4c1.07,1.37,2.19,2.77,3.49,4.22a45.22,45.22,0,0,0,4.78,4.27l-.59-1.13c1.19,1.18,3.12,3,4.74,4.48s2.89,2.55,2.53,2.54a5,5,0,0,1,2,1.43l-.13.31c1.11.83,2.19,1.69,3.31,2.49l3.42,2.35c2.45,2.07,2.06,2.16,2,2.47,0,.15,0,.35.5.89a22.16,22.16,0,0,0,3.38,2.77c2.93,1.93,8.64,5,7.68,4.05-1.13-.82-2.81-2.23-2.72-2.55l2.69,1.69c1-.43,3.48.15-2.43-4.82l-4.72-2.64-1.09-1.43c1.17.95,2.42,1.8,3.65,2.66a15.5,15.5,0,0,0-2.57-2c-.79-.53-1.56-.93-2.35-1.39a6.07,6.07,0,0,0-1.46-1.78l-4.7-2.57c-.25-.69,2.27,1-.29-1.48-2.13-1.3,1.26,2.18-2-.3-1.66-2-.87-1.77-3.38-3.48-.16-.46.43-.15,1.39.55-1.09-.78-2.48-1.89-3.69-3a16.4,16.4,0,0,0-3-2.32,36.43,36.43,0,0,0-3.79-4c-1.32-1.35-2.3-2.53-1.9-2.73a51.12,51.12,0,0,1-5.45-4.74c1.94,1.27.32-.37-1.38-2.48s-3.73-4.49-2.91-4.4a13.72,13.72,0,0,1-2.52-2.29c-.9-1-1.9-2.27-2.93-3.57l-3.15-4c-1-1.37-2-2.69-2.93-3.82a4.75,4.75,0,0,1,1,1.13c-1.82-2.78-2.13-3.73-3.19-5.58-.88.08-3.76-4.22-5.65-6.35-1.5-3.85,2.1,1.63,2,.16-.21.25-1.3-1.15-2.25-2.47s-1.74-2.56-1.63-1.82c-1.11-3-1.11-2.46-1.32-4.17-1.11,0-1.6-2.42-3.23-4.48-1.56-4.26.31-1.45-2.14-5.75C24.15,299.1,26.4,302.88,26.4,302.88Zm-21.19-114h0c-.1,1-.19,1.87-.25,2.42Zm1.34-9.82c-.21,1.18-.49,2.66-.71,4.24-.22.32-.42-.09-.23-1.07C5.65,182.79,6.15,180.5,6.55,179.07ZM.36,199.67a5.43,5.43,0,0,1,.31-2.34l-.13,2.79s0,.15.06.19A1.5,1.5,0,0,1,.36,199.67Z"/><path class="cls-1" d="M.9,202.57v.66l.18-.95L1,201.71Z"/><path class="cls-1" d="M285.7,410.07l.21-.06a2.39,2.39,0,0,1-.45.08C285.6,410.07,285.61,410.09,285.7,410.07Z"/><polygon class="cls-1" points="70.47 61.16 70.36 61.07 69.81 61.75 70.47 61.16"/><path class="cls-1" d="M231.85,420.42a2.91,2.91,0,0,0-.73-.09A2.61,2.61,0,0,0,231.85,420.42Z"/><path class="cls-1" d="M208.25,421.15l-3.33-.27C206.36,421,207.41,421.1,208.25,421.15Z"/><path class="cls-1" d="M190.16,419.76a.79.79,0,0,0-.37.19h0Z"/><path class="cls-1" d="M411.28,272.78a6.91,6.91,0,0,0,.19-.67C411.85,270.52,411.58,271.6,411.28,272.78Z"/><path class="cls-1" d="M371.49,348.14c.52-.76,1-1.5,1.61-2.26C372.06,347,371.27,347.9,371.49,348.14Z"/><path class="cls-1" d="M416.66,178.42s0,0,0,0l-.1-.58Z"/><path class="cls-1" d="M375.58,342.74a30.32,30.32,0,0,0-2.48,3.14C373.91,344.92,374.86,343.79,375.58,342.74Z"/><path class="cls-1" d="M115.53,396.81l-.77-.41s-.06,0-.13,0Z"/><path class="cls-1" d="M114.63,396.43l-.87-.42A3.7,3.7,0,0,0,114.63,396.43Z"/><path class="cls-1" d="M111.91,395.13l1.85.88A7.59,7.59,0,0,0,111.91,395.13Z"/><path class="cls-1" d="M137.27,406.94l.33-.09C137.44,406.84,137.33,406.86,137.27,406.94Z"/><path class="cls-1" d="M144.12,409.44c-1.64-.58-3.94-1.94-6.25-2.66l-.27.07C138.77,407,142.43,409.26,144.12,409.44Z"/><path class="cls-1" d="M173,419.76c-2-.43-4-1-6-1.45,1,.44,2.34,1-.42.48C174.1,421.08,165.12,418,173,419.76Z"/><path class="cls-1" d="M192,422.77c-3.31-.29,0,.32-.18.42a8.16,8.16,0,0,0,1.81-.06C193.71,423.06,193.22,423,192,422.77Z"/><path class="cls-1" d="M324.68,391.4l0,.61C326.81,390.59,324.58,391.83,324.68,391.4Z"/><path class="cls-1" d="M344.55,373.9c-.69.45-1.38.91-2.11,1.31l-.64,1.08C342.74,375.52,343.67,374.74,344.55,373.9Z"/><polygon class="cls-1" points="358.64 366.27 357.87 367.1 360.88 364.02 358.64 366.27"/><path class="cls-1" d="M415.43,151.21c-.12.3-.24.61-.38.92C415.61,153.78,416.41,153.93,415.43,151.21Z"/><path class="cls-1" d="M364.29,65.35a14.13,14.13,0,0,0-3.88-4.15C362,62.8,363.47,64.54,364.29,65.35Z"/><path class="cls-1" d="M87.65,40.35,89.2,39c-1,.78-2,1.53-3,2.38C86.67,41.05,87.14,40.67,87.65,40.35Z"/></g></g></svg>